# xmcd
#
# Track frame offsets: 
#        150
#        121045
#        159932
#        174612
#
# Disc length: 2689 seconds
#
# Revision: 2
# Processed by: cddbd v1.5.2PL0 Copyright (c) Steve Scherf et al.
# Submitted via: ExactAudioCopy v0.99pb5
#
DISCID=240a7f04
DTITLE=Oliver Nelson - Swiss Suite (Recorded At Montreux Jazz Festival
DTITLE=)
DYEAR=1971
DGENRE=Jazz
TTITLE0=Swiss Suite
TTITLE1=Stolen Moments
TTITLE2=Black, Brown and Beautiful
TTITLE3=Blues and The Abstract Truth
EXTD=YEAR: 1971
EXTT0=
EXTT1=
EXTT2=
EXTT3=
PLAYORDER=
